<svg preserveAspectRatio="none" overflow="visible" style="display: block;" width="23.5442" height="25.959" viewBox="0 0 23.5442 25.959" fill="none" xmlns="http://www.w3.org/2000/svg">
<g id="Group">
<path id="Vector" d="M17.3382 19.8134L15.998 25.0535L19.0164 23.8461L22.0349 25.0535L20.8275 19.7397M22.6386 16.6017C22.6386 17.5624 22.257 18.4837 21.5777 19.163C20.8984 19.8423 19.9771 20.2239 19.0164 20.2239C18.0558 20.2239 17.1345 19.8423 16.4552 19.163C15.7759 18.4837 15.3943 17.5624 15.3943 16.6017C15.3943 15.6411 15.7759 14.7197 16.4552 14.0405C17.1345 13.3612 18.0558 12.9795 19.0164 12.9795C19.9771 12.9795 20.8984 13.3612 21.5777 14.0405C22.257 14.7197 22.6386 15.6411 22.6386 16.6017Z" stroke="#515151" stroke-width="1.81109" stroke-linecap="round" stroke-linejoin="round"/>
<path id="Vector_2" d="M21.4312 10.5647C21.4312 6.01161 21.4312 3.73446 20.0161 2.32061C18.6011 0.906752 16.3252 0.905545 11.7721 0.905545H10.5647C6.01281 0.905545 3.73447 0.905545 2.32061 2.32061C0.906752 3.73567 0.905545 6.01161 0.905545 10.5647V15.3943C0.905545 19.9473 0.905545 22.2245 2.32061 23.6383C3.73567 25.0522 6.01161 25.0534 10.5647 25.0534H12.9795M6.33881 6.94251H15.9979M6.33881 12.9795H11.7721" stroke="#515151" stroke-width="1.81109" stroke-linecap="round" stroke-linejoin="round"/>
</g>
</svg>
