<svg preserveAspectRatio="none" overflow="visible" style="display: block;" width="50.5262" height="60" viewBox="0 0 50.5262 60" fill="none" xmlns="http://www.w3.org/2000/svg">
<g id="Group 2085664957">
<path id="Vector" fill-rule="evenodd" clip-rule="evenodd" d="M25.3834 4.95911e-05H25.324C25.2369 0.000414336 25.1499 0.0057563 25.0634 0.0160495C24.8857 0.0350339 24.7088 0.0609585 24.5331 0.0937637C23.9641 0.205365 23.4059 0.365963 22.8646 0.573763C21.4886 1.09033 19.5846 2.06176 17.1549 3.88576C15.3492 5.2389 12.4074 6.03432 9.61659 6.45489C8.04989 6.68523 6.47056 6.81957 4.88746 6.85718H2.52632V24C2.52632 27.7851 4.07603 31.1771 6.18346 34.0503C8.29317 36.9188 11.052 39.3943 13.7263 41.4011C17.0538 43.8763 20.6223 46.0097 24.3777 47.7691L24.4326 47.792L24.4417 47.7965L24.492 47.8194C24.7826 47.9423 25.0955 48.0037 25.411 47.9998C25.7264 47.9959 26.0377 47.9267 26.3251 47.7965L26.3343 47.792L26.3868 47.7691C26.6829 47.6339 26.977 47.4944 27.2691 47.3508C27.8588 47.0628 28.6954 46.6422 29.692 46.0937C32.2491 44.7047 34.7047 43.1366 37.0405 41.4011C39.7148 39.3943 42.4737 36.9211 44.5834 34.0503C46.6908 31.1771 48.2405 27.7851 48.2405 24V6.85718H45.8794L45.612 6.85032C44.1183 6.80366 42.6286 6.67086 41.1502 6.45261C38.3594 6.03432 35.4177 5.24347 33.612 3.88576C31.1823 2.06176 29.2783 1.09033 27.9 0.573763C27.3587 0.365963 26.8004 0.205365 26.2314 0.0937637C25.9705 0.0480849 25.7072 0.0175577 25.4428 0.00233541H25.4108L25.3971 4.95911e-05H25.3834Z" fill="url(#paint0_linear_0_75)"/>
<foreignObject x="-8.98448" y="-2.03697" width="68.4952" height="71.0215"><div xmlns="http://www.w3.org/1999/xhtml" style="backdrop-filter:blur(4.49px);clip-path:url(#bgblur_0_0_75_clip_path);height:100%;width:100%"></div></foreignObject><path id="Vector_2" data-figma-bg-blur-radius="8.98448" d="M25.2559 7.2102L25.2715 7.21313H25.3135L25.7354 7.24927C25.8742 7.26536 26.0127 7.28481 26.1504 7.30884C26.7642 7.42926 27.3663 7.60323 27.9502 7.82739L27.9521 7.82837C29.4484 8.38916 31.5308 9.44929 34.1992 11.4524C36.2507 12.9949 39.5589 13.8757 42.6504 14.3391L42.6514 14.3401C44.2951 14.5827 45.9516 14.7296 47.6123 14.7815H47.6143L47.9102 14.7893H50.2627V33.4739C50.2627 37.5834 48.5801 41.2785 46.2715 44.426C43.9607 47.5705 40.934 50.2862 37.9902 52.4954C35.4185 54.4061 32.7147 56.1321 29.8994 57.6614L29.8984 57.6624C29.3501 57.9642 28.8458 58.2314 28.3975 58.4622L27.2314 59.0461C26.9109 59.2038 26.5876 59.3567 26.2627 59.5051L26.209 59.5286L26.1963 59.5344L26.1904 59.5364C25.9071 59.6639 25.6008 59.7327 25.29 59.7366C24.9777 59.7404 24.6675 59.6795 24.3799 59.5579L24.3398 59.5393L24.3301 59.5344L24.3213 59.5305L24.3135 59.5276L24.2627 59.5061C20.3866 57.6901 16.6909 55.5127 13.2256 53.0022L12.5361 52.4954C9.59235 50.2862 6.56483 47.5682 4.25391 44.426C1.94538 41.2786 0.262725 37.5832 0.262695 33.4739V14.7893H2.61621C4.37658 14.7475 6.13286 14.5982 7.875 14.342H7.87598C10.9678 13.8761 14.275 12.9894 16.3262 11.4524C18.9946 9.44919 21.0774 8.38925 22.5713 7.82837L22.5732 7.82739C23.1565 7.60348 23.758 7.42924 24.3711 7.30884L24.3721 7.30981C24.5594 7.27485 24.7481 7.24704 24.9375 7.22681H24.9404C25.026 7.21663 25.1121 7.21058 25.1982 7.2102H25.2559ZM22.4736 30.6838H12.3682V36.2629H22.4736V46.3684H28.0527V36.2629H38.1582V30.6838H28.0527V20.5793H22.4736V30.6838Z" fill="#BFB5FF" fill-opacity="0.6" stroke="url(#paint1_linear_0_75)" stroke-width="0.526315"/>
</g>
<defs>
<clipPath id="bgblur_0_0_75_clip_path" transform="translate(8.98448 2.03697)"><path d="M25.2559 7.2102L25.2715 7.21313H25.3135L25.7354 7.24927C25.8742 7.26536 26.0127 7.28481 26.1504 7.30884C26.7642 7.42926 27.3663 7.60323 27.9502 7.82739L27.9521 7.82837C29.4484 8.38916 31.5308 9.44929 34.1992 11.4524C36.2507 12.9949 39.5589 13.8757 42.6504 14.3391L42.6514 14.3401C44.2951 14.5827 45.9516 14.7296 47.6123 14.7815H47.6143L47.9102 14.7893H50.2627V33.4739C50.2627 37.5834 48.5801 41.2785 46.2715 44.426C43.9607 47.5705 40.934 50.2862 37.9902 52.4954C35.4185 54.4061 32.7147 56.1321 29.8994 57.6614L29.8984 57.6624C29.3501 57.9642 28.8458 58.2314 28.3975 58.4622L27.2314 59.0461C26.9109 59.2038 26.5876 59.3567 26.2627 59.5051L26.209 59.5286L26.1963 59.5344L26.1904 59.5364C25.9071 59.6639 25.6008 59.7327 25.29 59.7366C24.9777 59.7404 24.6675 59.6795 24.3799 59.5579L24.3398 59.5393L24.3301 59.5344L24.3213 59.5305L24.3135 59.5276L24.2627 59.5061C20.3866 57.6901 16.6909 55.5127 13.2256 53.0022L12.5361 52.4954C9.59235 50.2862 6.56483 47.5682 4.25391 44.426C1.94538 41.2786 0.262725 37.5832 0.262695 33.4739V14.7893H2.61621C4.37658 14.7475 6.13286 14.5982 7.875 14.342H7.87598C10.9678 13.8761 14.275 12.9894 16.3262 11.4524C18.9946 9.44919 21.0774 8.38925 22.5713 7.82837L22.5732 7.82739C23.1565 7.60348 23.758 7.42924 24.3711 7.30884L24.3721 7.30981C24.5594 7.27485 24.7481 7.24704 24.9375 7.22681H24.9404C25.026 7.21663 25.1121 7.21058 25.1982 7.2102H25.2559ZM22.4736 30.6838H12.3682V36.2629H22.4736V46.3684H28.0527V36.2629H38.1582V30.6838H28.0527V20.5793H22.4736V30.6838Z"/>
</clipPath><linearGradient id="paint0_linear_0_75" x1="25.3834" y1="4.95911e-05" x2="25.3834" y2="48" gradientUnits="userSpaceOnUse">
<stop stop-color="#7C6FF0"/>
<stop offset="1" stop-color="#544AAA"/>
</linearGradient>
<linearGradient id="paint1_linear_0_75" x1="-3.60901" y1="11.7705" x2="69.2135" y2="47.5802" gradientUnits="userSpaceOnUse">
<stop stop-color="white"/>
<stop offset="1" stop-color="white" stop-opacity="0"/>
</linearGradient>
</defs>
</svg>
